<?xml version="1.0" standalone="no"?>
<!DOCTYPE svg PUBLIC "-//W3C//DTD SVG 20010904//EN"
 "http://www.w3.org/TR/2001/REC-SVG-20010904/DTD/svg10.dtd">
<svg version="1.0" xmlns="http://www.w3.org/2000/svg"
 width="1080.000000pt" height="1080.000000pt" viewBox="0 0 1080.000000 1080.000000"
 preserveAspectRatio="xMidYMid meet">

<g transform="translate(0.000000,1080.000000) scale(0.100000,-0.100000)"
fill="#000000" stroke="none">
<path d="M5090 8959 c-47 -4 -128 -10 -180 -14 -133 -9 -259 -40 -345 -85 -27
-15 -87 -46 -132 -69 -45 -23 -87 -48 -93 -56 -7 -8 -16 -15 -21 -15 -5 0 -24
-15 -42 -32 -54 -53 -135 -118 -145 -118 -5 0 -50 -39 -99 -87 -98 -95 -183
-217 -250 -358 -8 -16 -18 -37 -24 -45 -5 -8 -29 -56 -54 -105 -24 -50 -52
-99 -62 -110 -10 -11 -20 -29 -21 -40 -2 -11 -9 -27 -16 -35 -7 -8 -25 -41
-40 -72 -15 -32 -32 -58 -37 -58 -5 0 -9 -8 -9 -17 0 -9 -10 -28 -22 -42 l-23
-26 26 23 c37 33 55 28 29 -8 -12 -16 -27 -30 -34 -30 -8 0 -26 -17 -42 -37
-16 -21 -36 -47 -46 -58 -16 -17 -16 -20 -3 -28 8 -4 20 -5 25 -2 6 3 10 1 10
-6 0 -7 -10 -9 -25 -7 -18 4 -25 1 -25 -11 0 -9 -12 -27 -26 -40 -57 -55 -123
-254 -125 -384 -1 -40 -5 -79 -10 -88 -4 -8 -4 -21 1 -29 5 -8 3 -22 -6 -36
-8 -12 -17 -41 -19 -65 -2 -24 -1 -37 2 -29 3 8 14 22 23 30 9 8 20 24 24 35
3 11 15 31 26 45 19 25 20 25 20 3 0 -12 -5 -25 -12 -29 -7 -5 -5 -11 8 -21
18 -13 18 -15 2 -27 -10 -7 -15 -16 -11 -19 3 -4 1 -7 -5 -7 -15 0 -52 -36
-52 -50 0 -18 -38 -50 -44 -37 -3 9 -5 9 -5 0 -1 -6 -17 -35 -36 -64 -19 -30
-35 -63 -35 -74 0 -12 -5 -26 -11 -32 -6 -6 -9 -21 -7 -34 l3 -24 23 23 c12
12 25 22 30 22 13 1 87 70 85 80 -2 5 4 7 12 4 11 -5 15 1 15 22 0 21 3 25 11
17 12 -12 9 -22 -19 -64 -9 -15 -26 -40 -36 -57 -11 -17 -29 -32 -40 -34 -13
-2 -22 -12 -24 -25 -3 -23 -22 -33 -22 -13 0 16 -72 -59 -110 -115 -19 -27
-55 -90 -80 -140 l-45 -90 -81 0 c-63 0 -84 -4 -98 -17 -36 -37 -95 -37 -111
0 -5 12 -15 22 -22 22 -10 0 -10 -6 -1 -25 6 -14 9 -28 5 -31 -3 -3 -39 -8
-79 -11 -40 -3 -77 -8 -83 -13 -5 -4 -41 -10 -80 -14 -38 -4 -84 -9 -102 -12
-25 -5 -32 -2 -37 14 -4 13 -23 24 -58 33 -48 13 -52 16 -53 44 0 27 -4 30
-34 33 -20 2 -31 0 -27 -7 9 -15 -14 -59 -34 -64 -10 -2 -63 -5 -119 -6 -98
-2 -104 -1 -152 28 -27 17 -52 31 -56 31 -4 0 -24 16 -44 36 -36 36 -37 36
-68 19 -19 -9 -31 -22 -29 -32 2 -8 -5 -20 -14 -26 -14 -9 -21 -6 -40 18 -13
16 -31 47 -40 68 -12 25 -28 42 -51 52 -42 17 -61 39 -54 64 6 23 -33 62 -78
79 -53 20 -205 14 -250 -11 -82 -45 -113 -57 -151 -57 -28 0 -44 -5 -48 -15
-8 -21 -38 -7 -31 15 7 23 -46 43 -101 37 -22 -2 -51 0 -66 5 -23 8 -27 14
-22 34 9 35 -5 30 -18 -6 -5 -17 -15 -29 -22 -27 -6 2 -24 -5 -39 -16 -16 -11
-42 -20 -58 -22 -16 -1 -32 -5 -36 -9 -19 -19 -123 9 -123 34 0 30 -125 7
-166 -31 -22 -21 -24 -21 -49 -5 -28 18 -29 42 -1 40 9 -1 16 4 16 10 0 13
-31 31 -67 39 -20 5 -23 1 -23 -29 0 -24 5 -34 16 -34 8 0 12 -5 9 -10 -4 -6
-11 -8 -16 -5 -5 4 -9 -46 -9 -123 0 -155 8 -171 60 -117 42 43 51 44 44 5 -5
-22 -3 -30 7 -30 8 0 1 -9 -15 -19 -18 -12 -30 -30 -32 -46 -3 -31 -19 -52
-45 -60 -19 -6 -19 -52 -19 -2328 l0 -2322 48 -14 c26 -7 63 -12 82 -12 102 3
136 2 258 -13 74 -9 155 -16 181 -16 26 0 51 -3 54 -7 4 -3 59 -7 123 -9 93
-3 120 -7 135 -20 14 -13 22 -15 31 -6 11 11 227 6 240 -7 12 -11 -17 -105
-46 -149 -50 -73 -88 -253 -51 -238 8 3 15 0 16 -7 2 -39 12 -73 22 -79 7 -4
11 -54 12 -150 0 -132 -2 -147 -24 -192 -18 -37 -21 -51 -12 -54 14 -5 -63
-82 -81 -82 -5 0 -8 -6 -5 -12 6 -17 -24 -68 -39 -68 -6 0 -19 -11 -27 -24 -9
-13 -28 -37 -43 -53 l-26 -28 28 -3 c20 -3 33 2 43 17 17 27 35 27 28 1 -7
-28 26 -26 46 2 l16 23 -6 -24 c-6 -24 -6 -24 57 -18 63 5 92 18 71 31 -6 4
-11 2 -11 -5 0 -7 -2 -10 -5 -7 -3 3 -3 12 1 21 5 13 9 14 25 4 10 -6 19 -20
19 -29 0 -10 7 -18 15 -18 8 0 15 6 15 14 0 10 7 12 22 8 21 -5 21 -6 2 -13
-10 -4 37 -8 106 -8 123 -1 126 0 158 27 35 30 39 38 20 45 -7 2 -5 3 5 1 23
-3 35 25 16 37 -11 7 -10 11 6 23 18 13 21 13 26 -7 5 -19 7 -20 14 -5 4 9 4
21 2 25 -3 5 -2 15 3 23 7 11 11 8 19 -13 6 -16 18 -27 30 -27 10 0 22 -7 25
-15 3 -9 14 -15 23 -13 15 2 18 -3 15 -30 -2 -30 -1 -31 18 -20 11 7 20 16 20
20 0 5 5 8 11 8 6 0 8 -10 5 -22 -3 -13 -3 -17 0 -10 8 17 27 15 21 -2 -4 -10
-1 -13 9 -9 11 4 15 0 12 -13 -3 -18 12 -19 443 -22 l446 -2 28 40 c15 22 32
40 37 40 15 0 -3 -42 -26 -62 -20 -17 11 -17 763 -18 l783 0 -6 58 c-4 31 -8
69 -9 84 -1 14 -4 24 -6 22 -2 -2 -12 14 -22 36 -16 36 -17 44 -4 81 8 23 15
54 15 70 0 15 4 30 9 33 37 23 39 338 2 466 -11 41 -26 76 -31 78 -6 2 -10 18
-10 36 0 18 -4 36 -8 42 -35 38 -56 169 -31 185 5 3 8 12 6 20 -2 8 -2 10 1 6
2 -4 15 4 28 18 18 20 24 37 24 72 0 51 -19 123 -32 123 -4 0 -8 7 -8 16 0 8
-4 12 -10 9 -6 -3 -10 1 -10 10 0 9 5 13 11 9 8 -5 8 -1 0 14 -6 12 -14 49
-18 84 -6 65 -25 122 -43 133 -6 4 -8 15 -5 26 4 10 2 19 -3 19 -6 0 -8 10 -4
22 3 14 2 19 -6 14 -7 -4 -12 -1 -12 9 0 9 -9 33 -20 55 -18 35 -18 39 -3 33
12 -5 15 -2 11 9 -8 20 17 94 42 126 11 14 20 32 20 42 0 21 44 63 55 53 4 -5
5 0 2 10 -4 10 -2 39 4 65 5 25 7 69 4 98 -7 52 -10 56 -116 170 -16 17 -40
53 -54 79 l-26 47 46 -26 c25 -15 45 -24 45 -21 0 3 12 -6 27 -20 34 -31 59
-34 43 -6 -5 11 -15 22 -22 24 -9 4 -8 6 3 6 8 1 20 -4 27 -11 9 -9 12 -9 12
-1 0 7 -4 15 -10 18 -14 9 -12 35 3 32 7 -1 11 7 9 23 -1 15 5 30 15 38 14 10
17 28 18 97 0 47 -3 85 -6 85 -4 0 -9 12 -12 27 -4 19 -1 32 11 41 14 10 14
16 4 32 -15 24 -15 31 -1 27 6 -1 17 14 24 33 7 23 18 35 30 35 25 0 28 53 3
61 -20 6 -25 24 -6 24 9 0 9 3 0 12 -16 16 -15 28 3 28 19 0 20 19 0 26 -11 5
-9 11 12 30 23 21 24 25 9 39 -20 21 -2 55 26 47 21 -5 22 4 3 38 -16 28 -20
70 -6 70 5 0 12 -6 14 -12 4 -8 9 -3 13 11 l7 24 18 -24 c17 -23 19 -23 20 -4
0 16 3 14 14 -10 l14 -30 2 30 c1 25 3 26 6 7 4 -18 9 -21 25 -16 13 4 18 2
14 -4 -7 -12 12 -27 22 -18 3 4 5 26 3 51 -1 36 2 46 20 56 21 11 21 13 6 24
-19 14 -22 25 -7 25 10 0 60 47 60 57 0 4 -7 15 -17 25 -9 10 -11 18 -5 18 6
0 13 -4 16 -9 9 -14 41 -6 41 10 0 8 -6 13 -12 12 -16 -4 -17 33 -2 43 16 9
50 -37 43 -58 -6 -20 8 -22 41 -8 16 7 17 9 3 9 -17 1 -35 37 -24 48 3 4 6 1
6 -6 0 -7 4 -9 10 -6 11 7 63 -25 55 -33 -3 -4 9 -13 27 -22 18 -8 37 -25 43
-38 5 -12 15 -22 21 -22 7 0 15 -7 18 -16 3 -9 13 -14 21 -10 8 3 17 1 21 -5
3 -6 12 -8 19 -5 7 2 16 -2 19 -10 5 -12 9 -12 27 -2 17 10 23 10 26 1 3 -7
11 -13 19 -13 8 0 14 -4 14 -10 0 -5 7 -10 15 -10 8 0 15 -5 15 -11 0 -6 9 -9
20 -6 11 3 22 2 25 -2 2 -5 18 -8 35 -9 17 0 38 -6 46 -13 8 -7 28 -9 49 -6
39 6 43 2 18 -25 -25 -28 3 -22 35 7 34 32 78 46 123 41 24 -3 34 -8 33 -20
-1 -11 4 -16 15 -14 9 2 16 11 16 21 0 15 12 18 84 22 81 5 119 -5 105 -26 -9
-15 6 -49 22 -49 8 0 14 -7 14 -15 0 -9 7 -18 16 -22 12 -4 14 -14 10 -34 -4
-21 -2 -29 9 -29 20 0 35 -32 35 -75 0 -29 3 -36 15 -31 9 3 15 0 15 -9 0 -8
5 -15 10 -15 6 0 10 5 10 10 0 6 6 10 14 10 8 0 16 6 19 13 2 7 8 8 13 3 5 -5
4 -11 -3 -13 -22 -8 -14 -20 22 -37 20 -10 33 -21 30 -26 -3 -6 7 -23 24 -39
16 -15 31 -37 33 -47 3 -13 11 -18 26 -17 19 2 22 -2 22 -32 0 -19 6 -38 14
-42 26 -15 34 -92 17 -165 -9 -37 -22 -73 -29 -80 -14 -14 -16 -48 -2 -48 6 0
10 -19 10 -42 0 -54 10 -89 21 -82 5 3 10 -5 11 -18 0 -13 3 -36 5 -53 5 -44
5 -44 -3 -121 -4 -49 -3 -73 5 -78 6 -4 11 0 12 11 1 10 5 0 9 -22 4 -22 4
-45 -1 -51 -6 -8 -2 -13 13 -17 l22 -6 -24 -26 c-13 -14 -18 -25 -12 -25 7 0
12 -7 12 -15 0 -8 -7 -15 -15 -15 -8 0 -15 -4 -15 -10 0 -5 4 -10 9 -10 5 0 0
-17 -10 -38 -10 -20 -21 -50 -24 -67 -3 -16 -8 -41 -12 -55 -11 -51 -18 -216
-10 -260 13 -74 29 -130 38 -130 4 0 7 -18 7 -40 0 -22 -5 -37 -10 -34 -6 4
-7 -8 -3 -30 6 -28 4 -37 -9 -42 -9 -3 -16 -16 -16 -29 0 -12 -7 -28 -15 -35
-8 -7 -15 -20 -15 -30 0 -21 -27 -35 -33 -17 -7 21 -64 -108 -86 -194 -25 -97
-26 -142 -7 -309 14 -122 24 -164 51 -225 8 -16 31 -68 51 -115 21 -47 46 -92
55 -100 10 -8 23 -37 30 -65 7 -27 17 -53 23 -57 5 -4 10 -23 10 -42 0 -20 3
-31 6 -25 4 6 12 3 21 -7 8 -10 9 -15 3 -11 -14 8 -24 -14 -24 -49 l0 -24 259
0 259 0 -25 63 c-43 112 -129 261 -165 289 -10 7 -40 57 -68 111 -46 91 -50
103 -46 154 2 31 9 59 16 63 10 6 8 9 -4 11 -14 3 -11 12 19 54 29 41 35 45
29 23 -4 -21 -2 -28 8 -28 9 0 35 -19 60 -42 119 -114 157 -146 203 -172 55
-32 109 -71 137 -98 21 -21 24 -48 6 -49 -7 0 11 -7 41 -15 59 -16 81 -29 81
-50 0 -7 9 -18 21 -25 17 -9 20 -18 16 -47 -5 -40 -21 -91 -44 -134 -9 -19
-10 -29 -2 -33 6 -4 8 -16 6 -27 -13 -48 -25 -47 457 -48 l452 0 1 42 c6 183
5 219 -6 232 -10 12 -8 32 7 98 11 46 23 103 25 127 9 74 20 73 98 -4 38 -39
81 -88 95 -110 14 -22 23 -32 20 -22 -3 9 -2 17 2 17 14 0 52 -40 52 -55 0 -7
5 -15 11 -17 17 -6 20 -76 3 -92 -8 -8 -14 -21 -14 -29 0 -8 -25 -36 -56 -63
-31 -27 -75 -66 -97 -86 l-42 -37 58 -1 c52 0 63 4 112 40 30 22 55 45 55 50
0 6 5 10 11 10 15 0 39 26 39 42 0 8 5 19 11 25 6 6 11 26 12 45 l1 35 38 -20
c21 -12 38 -26 38 -31 1 -6 11 -24 24 -40 l24 -29 12 23 c20 37 20 132 1 155
-15 19 -15 19 2 5 16 -12 20 -12 28 1 8 13 13 42 12 82 0 10 5 16 11 14 6 -2
10 -11 8 -20 -1 -8 7 -18 18 -22 20 -6 27 -47 22 -125 -1 -14 11 -40 28 -62
36 -45 38 -56 5 -34 -29 19 -44 21 -27 4 18 -18 15 -38 -4 -31 -15 5 -16 1
-10 -31 17 -89 12 -86 172 -86 120 0 143 2 148 16 9 22 8 24 -9 18 -17 -7 -20
7 -5 22 8 8 8 19 0 38 -18 47 -11 52 17 11 14 -21 29 -53 33 -69 l6 -31 272
-3 271 -2 25 54 c13 29 30 89 36 133 17 113 2 359 -22 374 -5 3 -8 15 -6 25 1
11 -7 30 -18 42 -24 26 -40 100 -25 115 7 7 19 4 36 -7 14 -9 34 -15 43 -12
26 8 39 -5 44 -50 6 -45 -5 -74 -27 -74 -28 0 -16 -30 13 -32 15 0 34 -2 42
-2 8 -1 21 7 27 19 12 20 13 20 19 -2 7 -24 8 -25 112 -27 54 -2 62 1 62 16 0
16 6 17 54 12 l53 -6 5 31 c4 30 3 32 -21 29 -15 -1 -37 5 -51 15 -13 9 -38
17 -56 17 -17 0 -34 3 -38 8 -4 4 -13 7 -19 7 -7 0 -12 11 -12 23 -1 25 -28
47 -46 37 -14 -9 -49 24 -49 46 0 26 17 32 29 12 10 -17 10 -17 11 0 0 10 8
17 21 17 11 0 17 -4 14 -10 -3 -6 6 -11 22 -12 39 -2 43 -2 85 -17 31 -10 105
-15 178 -11 27 1 75 -12 91 -26 10 -9 27 -12 47 -8 17 4 43 3 57 0 23 -6 25
-11 25 -56 0 -50 13 -67 25 -31 12 39 30 43 61 12 20 -21 33 -26 41 -19 14 11
64 -39 85 -85 11 -22 19 -27 50 -27 38 0 38 0 38 41 0 47 23 51 27 4 3 -37 13
-46 55 -49 19 -2 41 -6 47 -11 7 -4 80 -8 162 -9 l149 -1 0 2283 0 2283 -37
-7 c-21 -4 -46 -8 -56 -9 -10 -1 -28 -13 -40 -28 -12 -15 -35 -30 -52 -33 -24
-4 -35 0 -58 24 -30 31 -55 33 -87 7 -8 -7 -33 -15 -55 -18 -36 -6 -42 -4 -56
21 -21 36 -127 70 -145 47 -15 -20 -24 -19 -24 4 0 27 26 44 56 37 19 -5 25
-3 22 6 -3 8 -19 12 -44 11 -21 -2 -68 -4 -104 -6 -43 -2 -81 -12 -112 -27
-48 -24 -61 -40 -33 -40 8 0 15 -5 15 -11 0 -5 -8 -9 -18 -7 -10 1 -29 -7 -42
-20 -13 -12 -34 -22 -47 -22 -15 0 -21 -5 -17 -14 4 -9 -6 -16 -33 -21 -25 -4
-48 -19 -68 -41 -16 -18 -41 -35 -55 -36 -21 -3 -26 2 -28 25 -2 15 -8 27 -13
27 -6 0 -7 5 -4 10 4 6 -7 10 -24 10 -17 0 -31 -4 -31 -10 0 -5 -9 -10 -20
-10 -24 0 -25 8 -5 37 14 21 14 24 -6 44 -14 14 -28 19 -42 16 -115 -29 -118
-31 -177 -90 -33 -32 -60 -64 -60 -71 0 -6 -7 -21 -15 -34 -14 -18 -19 -20
-35 -9 -11 6 -18 19 -15 27 2 8 -4 26 -14 39 -15 19 -17 31 -9 63 8 39 4 63
-11 53 -5 -2 -17 3 -27 11 -14 11 -15 17 -6 20 17 8 15 24 -4 24 -9 0 -18 -9
-21 -20 -3 -12 -24 -30 -46 -40 -49 -24 -47 -24 -47 -1 0 26 -70 37 -110 16
-29 -15 -170 -19 -170 -5 0 3 19 17 42 30 40 22 41 24 22 39 -19 16 -21 51 -3
51 5 0 3 13 -6 30 -8 16 -15 36 -15 45 0 22 -16 18 -38 -10 -20 -26 -46 -33
-57 -15 -3 6 -18 10 -32 10 -21 0 -24 -4 -20 -21 9 -34 -23 -55 -92 -62 -49
-5 -66 -4 -77 8 -9 8 -26 15 -38 15 -24 0 -56 28 -56 48 0 13 -19 16 -98 13
-50 -1 -52 0 -42 18 6 11 11 38 13 60 1 21 5 37 9 35 3 -2 21 9 39 26 19 16
29 31 24 32 -6 0 -14 2 -20 3 -5 2 -26 3 -46 4 -22 1 -37 6 -36 14 1 37 -5 45
-35 50 -23 3 -40 -2 -57 -14 -24 -19 -47 -17 -35 3 5 8 1 9 -12 3 -10 -4 -29
-10 -41 -12 -13 -3 -23 -9 -23 -14 0 -5 -4 -9 -10 -9 -5 0 -10 7 -10 15 0 8
-4 15 -10 15 -20 0 -9 -29 21 -59 21 -22 26 -31 15 -31 -19 0 -20 -5 -5 -32
15 -29 -4 -47 -26 -24 -15 15 -15 17 0 22 12 5 13 9 3 21 -15 19 -60 11 -87
-16 -26 -26 -84 -18 -125 16 -22 18 -36 22 -57 18 -38 -9 -70 2 -62 21 8 23
-9 16 -56 -21 -24 -19 -52 -35 -61 -35 -19 0 -30 -19 -30 -51 0 -10 -4 -19
-10 -19 -16 0 -11 -28 6 -38 26 -14 7 -32 -29 -28 -43 5 -52 -2 -27 -22 29
-24 17 -52 -24 -54 -17 0 -44 -2 -61 -3 -33 -2 -72 9 -125 33 -68 32 -91 20
-87 -43 1 -25 -3 -39 -12 -43 -10 -3 -12 0 -7 13 3 10 2 23 -4 30 -7 8 -6 51
3 135 13 120 14 374 2 457 -8 58 -40 145 -85 236 -22 42 -37 84 -34 92 4 9 0
15 -10 15 -18 0 -22 15 -6 25 13 8 13 145 0 145 -6 0 -9 -3 -8 -7 4 -14 -21
-73 -30 -73 -5 0 -3 19 5 43 18 50 30 312 13 287 -7 -11 -8 -7 -4 15 3 17 -2
58 -11 90 -9 33 -23 92 -31 130 -46 235 -44 309 6 395 18 30 19 212 1 307 -12
61 -48 140 -76 163 -8 7 -15 17 -15 22 0 5 -12 25 -26 43 -33 44 -70 153 -83
246 -18 129 -39 228 -59 271 -32 71 -102 154 -289 343 -173 175 -196 193 -323
255 -112 55 -253 96 -286 83 -12 -4 -15 -3 -10 5 7 11 -16 17 -54 14 -8 -1
-44 -4 -80 -7 -36 -2 -75 -8 -87 -11 -18 -5 -23 -2 -23 12 0 17 -1 17 -14 -1
-13 -18 -14 -18 -27 3 -8 12 -19 22 -25 22 -6 0 -19 9 -29 20 -10 11 -24 20
-31 20 -7 0 -14 5 -16 11 -2 5 -19 12 -38 15 -19 4 -37 10 -40 14 -6 10 -95
38 -135 43 -16 1 -68 0 -115 -4z m518 -353 c2 -10 -1 -23 -7 -29 -16 -16 -34
6 -26 33 8 24 28 22 33 -4z m12 -87 c0 -9 -7 -20 -16 -23 -26 -10 -4 -28 27
-22 28 5 40 -6 19 -19 -22 -14 -9 -27 20 -21 28 5 30 4 24 -19 -6 -23 -4 -25
33 -25 27 0 46 -6 58 -20 10 -11 26 -20 35 -20 9 0 25 -9 35 -20 10 -11 28
-21 39 -21 20 -2 20 -2 -1 -6 -35 -7 -28 -16 30 -40 44 -18 52 -25 50 -46 -1
-18 13 -43 47 -81 26 -30 50 -59 51 -63 2 -5 27 -22 54 -38 28 -15 65 -40 84
-54 19 -14 42 -25 52 -23 9 2 21 -3 25 -9 5 -9 2 -10 -10 -6 -12 5 -16 3 -13
-5 2 -7 17 -13 32 -13 16 0 30 -5 32 -12 3 -7 19 -21 38 -33 18 -11 38 -35 45
-53 23 -60 45 -99 63 -108 9 -5 17 -16 17 -24 0 -9 4 -23 10 -33 18 -33 41
-133 35 -153 -4 -13 -2 -19 7 -17 9 2 12 -6 10 -24 -2 -16 1 -28 7 -28 6 0 11
-8 11 -18 0 -10 5 -23 11 -29 6 -6 12 -17 13 -24 2 -8 8 -27 14 -42 7 -16 12
-32 12 -37 0 -5 5 -10 11 -12 16 -5 29 -86 15 -92 -6 -2 -1 -11 12 -21 12 -9
22 -26 22 -39 0 -12 3 -26 8 -30 4 -4 7 -11 8 -14 0 -4 4 -14 7 -22 27 -66 63
-290 46 -290 -4 0 -18 19 -32 43 -43 72 -68 93 -128 107 -44 10 -64 10 -90 1
-18 -6 -53 -9 -78 -6 -70 9 -248 -9 -269 -27 -9 -9 -23 -13 -30 -11 -8 3 -31
-12 -53 -33 l-39 -38 0 31 c0 18 -4 35 -10 38 -5 3 -10 3 -11 -2 -5 -55 -20
-76 -47 -65 -10 3 -13 1 -8 -6 4 -7 1 -12 -8 -12 -9 0 -16 -7 -16 -15 0 -8 -7
-15 -15 -15 -8 0 -15 -8 -15 -17 0 -21 -23 -90 -33 -99 -13 -14 -7 -36 8 -30
25 9 18 -28 -12 -60 -23 -25 -27 -38 -27 -94 -1 -61 0 -65 21 -63 17 2 21 -1
16 -14 -7 -19 9 -12 44 20 12 10 26 17 30 14 5 -3 21 0 36 8 14 7 35 11 46 8
13 -3 30 5 50 25 53 50 164 58 293 21 86 -25 133 -58 162 -113 22 -41 16 -54
-17 -38 -51 26 -205 74 -242 77 -22 1 -83 5 -136 10 -91 7 -98 6 -118 -14 -11
-11 -26 -21 -32 -21 -21 0 -99 -71 -99 -89 0 -30 34 -51 106 -66 38 -7 100
-25 137 -39 37 -14 79 -26 92 -26 28 0 33 -15 9 -24 -21 -8 -145 13 -163 28
-11 8 -15 8 -19 -2 -3 -10 -8 -9 -23 4 -11 10 -27 14 -39 11 -13 -3 -23 0 -26
8 -5 12 -44 9 -44 -4 0 -3 18 -14 40 -24 22 -10 40 -25 40 -33 0 -8 7 -14 15
-14 8 0 15 -4 15 -9 0 -5 8 -11 18 -15 9 -3 35 -17 57 -30 58 -34 265 -63 265
-36 0 6 -8 10 -17 11 -33 1 27 19 71 22 28 1 41 7 41 17 0 8 10 19 21 25 12 6
29 17 38 24 11 9 30 11 68 5 29 -4 57 -7 61 -6 5 2 11 -7 14 -18 3 -11 8 -20
12 -20 4 0 6 -65 6 -145 0 -80 -2 -145 -6 -145 -10 0 -29 -143 -33 -246 -6
-144 -65 -313 -142 -405 -19 -23 -38 -48 -43 -57 -8 -14 -12 -14 -25 -3 -14
12 -20 10 -40 -12 -13 -14 -22 -28 -20 -30 13 -12 -19 -59 -47 -69 -23 -8 -29
-15 -26 -29 4 -14 0 -19 -14 -19 -23 0 -25 -15 -4 -24 12 -4 13 -11 7 -23 -5
-10 -7 -24 -5 -31 3 -7 -3 -20 -13 -27 -11 -9 -14 -14 -6 -15 6 0 12 -12 12
-28 0 -29 -22 -47 -65 -54 -12 -2 -19 -10 -17 -21 2 -13 -4 -17 -27 -17 -18 0
-40 -11 -60 -29 -17 -16 -31 -24 -31 -18 0 7 -4 7 -12 -1 -9 -9 -9 -15 0 -24
10 -10 8 -15 -9 -24 -16 -8 -23 -23 -25 -53 -2 -24 -11 -50 -20 -58 -8 -9 -13
-22 -10 -29 3 -8 8 -20 11 -27 7 -16 -56 -50 -78 -41 -11 4 -17 1 -17 -9 0
-10 7 -13 20 -10 15 4 20 0 20 -15 0 -24 -23 -35 -40 -19 -10 10 -11 6 -6 -15
5 -22 3 -26 -9 -22 -20 8 -30 -22 -14 -44 11 -14 11 -15 -1 -4 -20 17 -33 15
-26 -5 7 -16 -23 -53 -44 -53 -5 0 -10 -7 -10 -16 0 -13 -8 -15 -42 -10 -24 3
-35 3 -25 0 9 -3 17 -10 17 -15 0 -15 -36 -10 -50 6 -19 23 -38 18 -59 -16
-11 -18 -22 -26 -25 -20 -12 19 -29 12 -23 -9 3 -11 1 -20 -4 -20 -5 0 -9 6
-9 14 0 25 -19 28 -41 7 -12 -11 -26 -18 -32 -14 -5 3 -13 0 -17 -7 -4 -7 -31
-18 -61 -26 -46 -12 -55 -12 -69 1 -9 8 -31 15 -49 15 -18 0 -41 5 -53 11 -16
9 -24 7 -44 -12 -20 -19 -24 -20 -24 -6 0 21 -16 22 -23 3 -3 -8 -14 -15 -24
-15 -10 0 -33 -3 -51 -7 -20 -4 -38 -2 -47 6 -12 10 -15 10 -15 -1 -1 -10 -4
-8 -11 4 -5 9 -19 17 -29 17 -10 0 -22 5 -25 10 -4 6 -12 7 -18 3 -14 -9 -48
-5 -63 8 -6 5 -14 6 -17 2 -4 -3 -17 2 -28 13 -16 14 -23 15 -26 7 -7 -18 -27
-16 -55 6 -13 11 -37 23 -51 26 -15 4 -27 11 -27 16 0 13 -50 59 -50 46 0 -7
-6 -4 -14 6 -7 9 -21 17 -30 17 -11 0 -14 5 -10 12 5 8 2 9 -9 5 -20 -7 -23 8
-4 17 9 5 9 7 -1 12 -7 3 -30 25 -50 47 -20 23 -48 53 -62 68 -14 14 -24 31
-22 38 2 6 -1 11 -7 11 -6 0 -11 5 -11 12 0 6 -14 24 -31 39 -28 25 -29 28
-12 37 16 10 15 12 -11 22 -22 8 -26 14 -18 22 17 17 15 48 -2 48 -8 0 -17 -6
-20 -12 -3 -7 -4 1 -2 17 1 17 1 24 -1 18 -10 -31 -48 -3 -40 29 5 19 0 31
-18 48 -28 26 -17 45 20 33 16 -4 15 0 -8 21 -15 14 -35 26 -43 26 -7 0 -14 9
-14 20 0 13 -12 25 -36 35 -26 11 -34 19 -30 32 7 25 -14 50 -55 61 -26 8 -29
10 -11 11 l23 1 -22 31 c-18 26 -20 35 -11 50 7 10 12 24 12 31 0 9 -3 8 -10
-2 -15 -25 -25 18 -12 54 8 20 8 34 2 40 -12 12 -13 29 -2 22 5 -3 9 9 9 27 0
18 4 45 8 61 5 19 4 27 -2 23 -6 -4 -13 2 -16 13 -3 11 -1 23 5 26 6 4 5 10
-3 15 -12 7 -12 9 0 9 10 0 11 3 2 14 -7 8 -8 17 -3 20 14 8 12 56 -2 53 -6
-1 -10 8 -9 20 2 14 -5 27 -17 33 -16 9 -20 21 -20 63 0 29 -5 58 -11 64 -6 6
-11 54 -11 119 0 188 6 227 43 300 6 11 9 24 8 30 -2 5 1 35 5 66 6 45 4 61
-7 73 -19 19 -4 103 24 127 10 9 19 26 19 37 0 12 5 21 10 21 6 0 10 -5 10
-12 0 -6 3 -9 6 -6 3 4 -2 18 -11 32 -17 25 -17 26 4 26 12 0 21 6 21 15 0 9
9 15 23 15 18 0 19 2 7 10 -12 8 -11 10 7 10 12 0 27 9 34 21 7 13 17 19 29
16 13 -3 17 0 13 9 -3 8 0 14 6 14 6 0 11 -5 11 -11 0 -7 10 -9 26 -5 17 5 23
3 19 -4 -3 -6 3 -10 14 -10 12 0 21 -5 21 -10 0 -6 10 -15 23 -21 41 -19 72
-38 72 -46 0 -4 10 -18 23 -30 12 -13 22 -30 22 -38 0 -8 8 -15 18 -15 10 0
22 -3 26 -7 4 -5 26 -16 49 -25 27 -11 35 -17 22 -18 -26 -1 52 -30 83 -30 14
0 22 -6 22 -16 0 -39 282 5 330 52 12 12 10 14 -20 14 -19 0 -44 -7 -54 -15
-11 -8 -29 -15 -40 -14 -17 0 -15 3 9 14 l30 13 -28 11 c-16 6 -33 9 -38 5 -5
-3 -9 0 -9 5 0 6 -4 11 -10 11 -5 0 -10 -7 -10 -15 0 -17 -17 -20 -22 -4 -5
14 -40 19 -55 6 -9 -7 -13 -5 -13 7 0 19 -11 21 -28 4 -10 -10 -14 -8 -18 9
-8 30 -30 19 -38 -19 -5 -24 -9 -28 -19 -19 -8 6 -18 7 -22 3 -5 -4 -5 1 -2
11 4 11 3 16 -3 12 -6 -3 -10 -14 -11 -23 0 -14 -3 -13 -16 6 -8 12 -22 22
-29 22 -8 0 -14 10 -14 25 0 25 14 33 25 15 4 -6 11 -7 17 -4 7 5 5 12 -7 20
-32 23 -10 25 56 5 59 -18 80 -23 177 -35 17 -2 32 0 32 5 0 5 9 9 20 9 14 0
20 7 20 23 1 12 7 33 14 46 7 13 11 32 8 43 -6 23 10 23 30 1 35 -42 31 -83
-8 -83 -15 0 -24 -6 -24 -15 0 -10 10 -15 33 -15 17 1 66 -4 107 -9 61 -7 78
-6 90 5 13 13 12 20 -9 59 -13 25 -27 45 -31 45 -4 0 -7 7 -7 15 0 8 6 15 14
15 7 0 13 -4 13 -10 0 -18 19 -10 25 10 4 11 12 20 18 19 33 -4 40 1 26 17
-10 13 -10 17 0 24 8 4 10 13 6 20 -6 10 -2 12 13 8 12 -4 22 -2 22 3 0 5 -3
9 -7 9 -5 0 -9 11 -9 25 -1 14 3 25 8 25 6 0 8 9 5 19 -5 21 29 38 36 18 2 -6
11 -8 22 -3 14 5 16 9 7 18 -20 20 -13 30 18 26 17 -3 30 -1 30 4 0 4 9 8 21
8 17 0 19 4 12 23 -4 12 -8 47 -8 79 0 31 -3 60 -7 64 -5 4 -8 17 -8 28 0 20
-1 20 -20 -4 -11 -14 -20 -19 -20 -11 0 7 -6 11 -15 7 -8 -3 -15 0 -15 7 0 20
-49 67 -64 61 -8 -3 -18 6 -25 24 -13 32 -100 80 -120 67 -6 -3 -10 -1 -9 5 2
6 -49 29 -117 53 -105 36 -131 41 -210 41 -80 1 -93 4 -115 24 -18 17 -33 22
-56 19 -51 -8 -318 -144 -376 -191 -54 -44 -55 -44 -51 -18 10 60 56 188 72
202 10 8 30 42 46 77 8 17 26 44 40 59 14 15 33 42 41 60 8 18 28 45 44 60 16
16 30 36 30 45 0 9 7 22 15 29 8 7 14 18 13 24 -3 11 17 39 60 83 12 13 22 27
22 31 0 18 65 90 128 142 23 19 42 40 42 46 0 6 9 19 20 29 11 10 20 24 20 31
0 7 6 17 13 21 13 8 77 99 77 110 0 4 7 13 15 22 47 52 55 62 55 69 0 10 53
66 106 111 48 41 101 61 168 62 28 1 43 3 34 6 -10 2 -18 8 -18 12 0 10 46 18
154 27 57 5 85 12 100 25 14 14 22 16 27 7 6 -9 11 -9 22 0 7 7 16 9 19 7 3
-3 13 7 23 22 10 15 24 32 32 36 7 4 13 14 13 21 0 7 7 13 15 13 8 0 15 -8 15
-18z m-2090 -998 c-1 -10 -27 -41 -34 -41 -4 0 -2 8 3 19 6 10 8 20 6 23 -3 3
2 5 10 5 8 0 15 -3 15 -6z m690 4 c0 -9 -70 -69 -97 -83 -14 -8 -27 -11 -31
-8 -3 3 -1 6 4 6 6 0 32 20 59 45 46 42 65 53 65 40z m-745 -84 c-3 -6 -11
-11 -17 -11 -6 0 -6 6 2 15 14 17 26 13 15 -4z m1132 -371 c72 -6 123 -17 150
-30 23 -11 46 -20 51 -20 5 0 20 -8 33 -18 13 -11 36 -22 51 -26 21 -5 29 -14
34 -41 3 -20 14 -40 23 -45 9 -5 11 -10 4 -10 -29 0 6 -44 48 -60 35 -13 44
-20 42 -38 -2 -12 1 -22 6 -22 5 0 20 -15 32 -32 15 -22 17 -28 6 -19 -9 7
-24 10 -33 7 -9 -3 -30 2 -48 13 -50 31 -181 59 -306 65 -125 6 -146 9 -156
19 -12 11 -64 8 -64 -4 0 -6 -7 -8 -16 -5 -8 3 -42 -3 -74 -14 -33 -11 -69
-20 -80 -20 -11 0 -29 -5 -40 -12 -16 -10 -23 -9 -43 10 -13 12 -28 22 -34 22
-32 0 -56 93 -39 148 10 31 133 104 200 118 33 7 77 17 96 22 19 5 38 7 42 5
4 -2 56 -8 115 -13z m-667 -241 c0 -24 -4 -30 -16 -25 -8 3 -13 2 -10 -3 3 -5
-1 -14 -9 -21 -13 -11 -15 -8 -15 15 0 27 24 65 42 65 4 0 8 -14 8 -31z m953
-79 c37 -12 67 -26 67 -32 0 -6 -8 -7 -17 -3 -53 21 -92 25 -236 26 -87 0
-162 -3 -167 -6 -5 -3 -18 -2 -27 4 -23 12 -10 18 72 30 95 15 231 7 308 -19z
m-973 -10 c0 -5 -7 -10 -16 -10 -8 0 -12 5 -9 10 3 6 10 10 16 10 5 0 9 -4 9
-10z m2770 -11 c0 -6 17 -27 37 -45 37 -34 37 -34 37 -116 1 -76 -1 -85 -25
-108 -22 -22 -30 -24 -60 -17 -36 9 -61 13 -119 22 -19 3 -62 14 -95 25 -111
36 -199 52 -285 51 l-85 0 25 19 c14 11 34 20 44 20 11 0 33 4 50 10 17 5 48
12 69 15 36 6 38 8 33 33 -3 15 -3 22 0 16 5 -13 64 37 64 55 0 6 12 13 28 17
15 3 32 7 37 9 6 2 63 4 128 4 80 1 117 -3 117 -10z m-1801 -26 c25 -9 60 -27
79 -40 19 -12 41 -23 48 -23 8 0 23 -18 34 -39 11 -22 24 -42 30 -46 5 -3 10
-11 10 -18 0 -6 -19 7 -42 31 -22 24 -47 41 -54 38 -8 -3 -18 2 -23 12 -5 9
-13 14 -17 10 -4 -5 -13 -3 -21 3 -9 8 -13 8 -13 1 0 -8 -9 -8 -27 -1 -33 11
-244 29 -257 21 -5 -3 -25 -7 -45 -9 -84 -8 -116 -12 -116 -13 0 -1 -19 -4
-42 -6 -24 -2 -43 -2 -43 1 0 10 101 55 147 66 153 37 271 41 352 12z m146
-38 c22 -19 35 -35 30 -35 -13 1 -93 70 -80 70 6 0 28 -16 50 -35z m-1745 5
c0 -5 -2 -10 -4 -10 -3 0 -8 5 -11 10 -3 6 -1 10 4 10 6 0 11 -4 11 -10z
m1800 -60 c0 -5 -2 -10 -4 -10 -3 0 -8 5 -11 10 -3 6 -1 10 4 10 6 0 11 -4 11
-10z m-1140 -60 c0 -5 -5 -10 -11 -10 -5 0 -7 5 -4 10 3 6 8 10 11 10 2 0 4
-4 4 -10z m581 -155 c1 -17 -18 -17 -25 0 -4 11 -1 15 10 13 8 -2 15 -7 15
-13z m-3466 -84 c7 -12 -12 -24 -25 -16 -11 7 -4 25 10 25 5 0 11 -4 15 -9z
m230 -31 c3 -5 3 -15 -1 -21 -6 -11 -23 6 -24 24 0 10 18 9 25 -3z m-292 -15
c4 -8 2 -17 -4 -21 -14 -8 -79 5 -79 16 0 22 75 27 83 5z m5367 -30 c0 -9 -9
-15 -21 -15 -18 0 -19 2 -9 15 7 8 16 15 21 15 5 0 9 -7 9 -15z m-6084 -5 c8
0 14 -7 14 -15 0 -8 -4 -15 -10 -15 -5 0 -9 -3 -9 -7 4 -23 -3 -33 -21 -33
-17 0 -20 7 -20 41 0 33 3 40 16 35 9 -3 22 -6 30 -6z m6072 -66 c7 4 7 -4 -1
-24 l-12 -30 -18 22 -18 23 6 -32 c4 -18 4 -33 2 -33 -11 0 -44 68 -38 78 10
16 45 19 57 3 6 -8 16 -11 22 -7z m-6208 -5 c0 -24 -23 -21 -28 4 -2 10 3 17
12 17 10 0 16 -9 16 -21z m-22 -38 c-3 -10 -12 -15 -26 -14 -19 2 -26 -5 -24
-27 0 -3 -11 -6 -24 -6 -29 -2 -31 13 -5 40 25 26 84 31 79 7z m6262 -5 c0 -3
-4 -8 -10 -11 -5 -3 -10 -1 -10 4 0 6 5 11 10 11 6 0 10 -2 10 -4z m-6177 -81
c-3 -34 -10 -42 -24 -28 -15 15 -2 66 14 60 7 -2 11 -17 10 -32z m277 -35 c0
-5 -2 -10 -4 -10 -3 0 -8 5 -11 10 -3 6 -1 10 4 10 6 0 11 -4 11 -10z m2330
-510 c0 -5 -10 -10 -22 -10 -19 0 -20 2 -8 10 19 13 30 13 30 0z m-23 -76 c-3
-3 -12 -4 -19 -1 -8 3 -5 6 6 6 11 1 17 -2 13 -5z m5356 -61 c-7 -2 -9 -11 -6
-19 6 -15 -12 -20 -22 -5 -7 12 25 45 34 35 3 -4 1 -9 -6 -11z m46 -32 c-15
-5 -22 6 -14 19 6 9 10 9 16 -1 5 -8 4 -15 -2 -18z m21 -26 c16 -19 -3 -45
-31 -45 -21 0 -24 12 -9 41 13 23 23 24 40 4z m50 -9 c0 -11 -19 -15 -25 -6
-3 5 1 10 9 10 9 0 16 -2 16 -4z m-5520 -16 c0 -5 -7 -10 -16 -10 -8 0 -12 5
-9 10 3 6 10 10 16 10 5 0 9 -4 9 -10z m4815 -50 c3 -5 -1 -10 -10 -10 -9 0
-13 5 -10 10 3 6 8 10 10 10 2 0 7 -4 10 -10z m-4227 -107 c-4 -43 -11 -118
-16 -168 -5 -49 -7 -147 -6 -217 2 -70 0 -130 -5 -132 -31 -20 -47 315 -21
438 18 86 40 156 48 156 4 0 4 -35 0 -77z m3389 -245 c6 -98 -7 -229 -34 -343
-4 -16 -6 -33 -5 -37 1 -5 -6 -8 -15 -8 -15 0 -16 -2 -3 -10 10 -6 11 -10 3
-10 -7 0 -12 -3 -11 -7 3 -14 -54 -183 -64 -189 -13 -9 1 92 23 156 11 30 20
59 22 65 1 5 7 14 14 20 8 6 16 69 23 170 6 88 16 173 22 188 6 15 8 51 5 80
-4 36 -3 47 4 35 5 -9 12 -59 16 -110z m-383 77 c-4 -8 -10 -15 -15 -15 -4 0
-6 7 -3 15 4 8 10 15 15 15 4 0 6 -7 3 -15z m-2104 -171 c0 -8 -5 -12 -10 -9
-6 4 -8 11 -5 16 9 14 15 11 15 -7z m-1435 -134 c-3 -5 -12 -10 -18 -10 -7 0
-6 4 3 10 19 12 23 12 15 0z m-13 -137 c-7 -3 -18 -10 -25 -17 -14 -14 -113
-70 -142 -80 -14 -4 -11 1 10 18 38 32 158 96 165 89 3 -3 -1 -8 -8 -10z
m5028 -517 c103 -17 277 -66 355 -101 54 -23 148 -82 196 -122 36 -31 114
-136 146 -198 65 -126 110 -275 153 -500 4 -22 15 -62 23 -90 8 -27 25 -95 37
-150 11 -55 26 -118 31 -140 28 -115 74 -421 85 -570 11 -145 15 -199 20 -280
2 -44 9 -105 13 -135 5 -30 8 -67 7 -82 -1 -15 1 -29 6 -30 10 -4 18 -178 7
-178 -5 0 -9 6 -9 14 0 8 -4 16 -8 18 -4 2 -25 35 -47 73 -38 68 -139 179
-158 172 -6 -2 -10 -19 -11 -39 -1 -20 3 -34 8 -30 5 3 6 -23 2 -64 -5 -38 -9
-86 -10 -106 -2 -43 -16 -64 -16 -25 0 14 -5 29 -10 32 -6 4 -10 21 -10 38 0
18 -2 54 -3 81 -2 33 2 53 12 63 11 12 12 16 1 23 -9 6 -10 15 -2 36 6 16 11
23 11 17 1 -7 5 -13 10 -13 11 0 5 87 -9 141 -11 41 -58 94 -92 105 -19 6 -85
92 -109 144 -18 39 -76 99 -63 66 8 -21 12 -23 -74 32 -30 18 -51 36 -49 39 6
6 66 -24 90 -45 9 -8 17 -11 17 -5 0 5 -12 18 -27 30 -47 34 -163 93 -163 83
0 -6 -3 -10 -8 -10 -13 0 -35 97 -46 200 -4 44 -31 150 -46 180 -4 8 -18 39
-31 67 -12 29 -32 59 -44 67 -11 8 -29 33 -39 57 -11 24 -27 62 -37 85 -11 22
-19 48 -19 57 0 23 -47 115 -76 150 -13 16 -24 33 -24 39 0 16 -88 116 -108
122 -24 8 -77 98 -95 162 -8 28 -24 68 -35 90 -10 21 -22 63 -26 93 -4 30 -14
68 -23 85 -9 17 -17 62 -19 104 -2 40 -6 82 -9 93 -3 10 -7 28 -10 38 -5 15 0
20 22 24 65 10 234 6 313 -7z m-613 -108 c-3 -8 -6 -5 -6 6 -1 11 2 17 5 13 3
-3 4 -12 1 -19z m245 -147 c-4 -50 -11 -71 -27 -71 -26 0 -32 49 -14 114 l11
38 16 -23 c9 -13 15 -38 14 -58z m-2932 -187 c0 -14 -21 -19 -33 -7 -9 9 13
34 24 27 5 -3 9 -12 9 -20z m-48 -36 c-9 -9 -15 -9 -24 0 -9 9 -7 12 12 12 19
0 21 -3 12 -12z m3038 -59 c0 -20 -15 -26 -25 -9 -9 15 3 43 15 35 5 -3 10
-15 10 -26z m-3167 -23 c-3 -4 -9 -2 -14 5 -13 22 -11 31 5 17 8 -7 12 -17 9
-22z m42 24 c3 -5 1 -10 -4 -10 -6 0 -11 5 -11 10 0 6 2 10 4 10 3 0 8 -4 11
-10z m65 -41 c0 -5 -4 -9 -10 -9 -5 0 -10 7 -10 16 0 8 5 12 10 9 6 -3 10 -10
10 -16z m1205 -39 c3 -5 -1 -10 -9 -10 -9 0 -16 5 -16 10 0 6 4 10 9 10 6 0
13 -4 16 -10z m2145 -265 c7 -8 8 -15 2 -15 -5 0 -15 7 -22 15 -7 8 -8 15 -2
15 5 0 15 -7 22 -15z m-616 -58 c28 -23 29 -47 2 -47 -11 0 -20 12 -44 63 -7
14 14 6 42 -16z m-4106 -17 c-12 -19 -28 -27 -28 -14 0 6 30 33 38 34 1 0 -3
-9 -10 -20z m-838 -4 c0 -2 -18 -23 -40 -46 -21 -22 -47 -51 -57 -63 -23 -29
-120 -107 -108 -87 15 25 27 38 89 98 32 31 67 67 79 80 19 20 37 29 37 18z
m5000 -37 c0 -6 7 -17 15 -25 23 -23 20 -64 -5 -64 -11 0 -20 4 -20 8 0 5 -9
18 -20 30 -17 18 -19 26 -10 42 11 21 40 28 40 9z m525 -79 c16 -18 16 -20 2
-20 -9 0 -21 9 -27 20 -6 11 -7 20 -2 20 5 0 17 -9 27 -20z m-5310 -30 c-3 -6
-10 -10 -16 -10 -10 0 -12 33 -2 44 9 9 26 -22 18 -34z m4819 1 c4 -5 -3 -7
-14 -4 -23 6 -26 13 -6 13 8 0 17 -4 20 -9z m193 -84 c-2 -15 0 -30 4 -33 5
-2 4 -16 -1 -30 -6 -14 -10 -44 -10 -67 0 -32 3 -38 12 -29 21 21 26 13 17
-32 -9 -49 -49 -146 -60 -146 -14 0 -21 41 -14 77 6 31 4 34 -13 29 -12 -4
-22 -1 -24 6 -9 24 17 164 36 193 10 15 20 42 21 59 4 43 4 43 21 21 8 -11 13
-32 11 -48z m-1446 -150 c-16 -16 -20 -5 -8 23 9 22 11 23 14 6 3 -10 0 -23
-6 -29z m1837 -52 c-3 -3 -9 2 -12 12 -6 14 -5 15 5 6 7 -7 10 -15 7 -18z
m-6051 -21 c-3 -3 -12 -4 -19 -1 -8 3 -5 6 6 6 11 1 17 -2 13 -5z m1123 -71
c0 -23 -4 -44 -9 -47 -9 -6 -21 92 -13 108 9 16 22 -20 22 -61z m-53 25 c-3
-8 -6 -5 -6 6 -1 11 2 17 5 13 3 -3 4 -12 1 -19z m-1167 -38 c3 -5 11 -5 20 0
33 21 44 9 15 -16 -62 -54 -71 -59 -96 -62 -39 -5 -53 19 -39 63 11 34 13 35
53 30 22 -3 44 -10 47 -15z m5980 -64 c0 -6 -4 -5 -9 3 -7 10 -11 5 -16 -17
-8 -38 0 -53 22 -45 14 5 15 1 10 -31 -3 -21 -14 -44 -24 -51 -11 -8 -17 -26
-17 -48 0 -31 -2 -34 -15 -24 -12 10 -13 8 -7 -15 5 -23 3 -28 -13 -28 -15 0
-18 5 -13 22 3 14 2 19 -6 14 -21 -13 -18 59 5 121 8 23 13 51 10 63 -3 11 3
30 14 44 10 13 19 30 19 38 1 8 9 3 20 -11 11 -13 20 -28 20 -35z m397 -3 c-3
-10 -5 -4 -5 12 0 17 2 24 5 18 2 -7 2 -21 0 -30z m-5921 -48 c-22 -19 -42
-32 -45 -29 -7 7 58 64 73 64 6 -1 -7 -16 -28 -35z m-551 15 c-3 -5 -10 -10
-16 -10 -5 0 -9 5 -9 10 0 6 7 10 16 10 8 0 12 -4 9 -10z m6430 -26 c8 -44 -1
-56 -15 -20 -12 33 -13 56 -1 56 5 0 12 -16 16 -36z m-1395 23 c0 -2 -10 -12
-22 -23 l-23 -19 19 23 c18 21 26 27 26 19z m936 -234 c13 -8 24 -24 24 -35 0
-16 -5 -19 -25 -14 -47 12 -73 25 -94 47 -15 16 -21 18 -21 8 -1 -18 -30 57
-37 95 -6 29 -4 28 62 -28 37 -31 78 -64 91 -73z m604 100 c0 -5 -5 -15 -10
-23 -8 -12 -10 -11 -10 8 0 12 5 22 10 22 6 0 10 -3 10 -7z m-5860 -13 c0 -5
-7 -7 -15 -4 -8 4 -15 8 -15 10 0 2 7 4 15 4 8 0 15 -4 15 -10z m5977 -115
c72 -51 122 -107 102 -114 -14 -4 -99 20 -99 29 0 4 -8 11 -18 16 -30 14 -90
87 -98 118 -6 27 -6 28 18 15 13 -8 56 -36 95 -64z m-667 15 c0 -11 -4 -20
-10 -20 -5 0 -10 9 -10 20 0 11 5 20 10 20 6 0 10 -9 10 -20z m-130 -50 c5 0
21 -11 36 -25 15 -14 33 -25 40 -25 7 0 10 -8 7 -20 -3 -11 -7 -20 -9 -20 -10
0 -104 103 -104 114 0 6 5 3 11 -6 5 -10 14 -18 19 -18z m-5010 11 c0 -5 -7
-11 -15 -15 -15 -5 -20 5 -8 17 9 10 23 9 23 -2z m-396 -16 c-4 -8 -8 -15 -10
-15 -2 0 -4 7 -4 15 0 8 4 15 10 15 5 0 7 -7 4 -15z m1793 -7 c-3 -8 -6 -5 -6
6 -1 11 2 17 5 13 3 -3 4 -12 1 -19z m-1437 6 c0 -8 -32 -33 -43 -34 -4 0 -2
9 5 20 12 19 38 28 38 14z m1470 -40 c0 -8 -4 -12 -10 -9 -5 3 -10 13 -10 21
0 8 5 12 10 9 6 -3 10 -13 10 -21z m71 -100 c11 -36 -15 -18 -39 27 -12 23
-22 46 -22 52 0 17 54 -52 61 -79z m-517 57 c3 -5 -1 -14 -8 -20 -12 -10 -13
-8 -9 8 6 23 9 25 17 12z m4222 -61 c-4 -25 -2 -40 4 -40 5 0 10 5 10 10 0 6
6 10 13 10 11 0 12 -13 2 -72 -7 -49 -15 -72 -23 -70 -16 3 -49 -69 -58 -125
-3 -23 -3 -67 1 -98 5 -47 9 -54 21 -44 12 9 12 6 3 -21 -7 -19 -8 -35 -3 -39
6 -3 9 -22 9 -41 -1 -19 7 -51 16 -71 19 -39 103 -119 125 -119 17 0 168 -71
172 -82 2 -4 10 -8 18 -8 25 0 104 -87 104 -114 0 -3 -8 1 -17 10 -117 103
-161 118 -58 20 38 -37 64 -69 60 -76 -4 -6 -2 -16 3 -23 13 -16 18 -59 9 -73
-4 -7 0 -15 9 -18 8 -3 12 -10 9 -16 -4 -6 -12 -7 -18 -3 -8 4 -7 1 1 -9 10
-12 10 -18 1 -23 -12 -8 -59 36 -59 55 0 5 -4 10 -8 10 -11 0 -34 21 -99 92
-39 42 -53 65 -53 87 0 16 -5 31 -10 33 -6 2 -12 13 -13 25 0 12 -5 19 -9 17
-4 -3 -8 2 -8 11 0 12 -5 15 -17 11 -10 -4 -15 -5 -12 -2 7 8 -239 258 -249
252 -4 -2 -16 2 -26 9 -22 17 -15 48 9 39 14 -6 13 -1 -3 27 -10 19 -22 52
-26 74 -6 37 -5 39 9 20 8 -11 14 -24 11 -31 -2 -6 -1 -16 4 -23 4 -8 10 -1
14 21 5 27 9 30 17 18 9 -12 10 -10 6 8 -5 19 -3 21 9 11 11 -9 14 -8 14 5 0
9 -4 16 -8 16 -13 0 2 96 17 114 11 13 11 16 -3 16 -17 0 -21 20 -7 35 5 6 12
21 16 34 6 18 4 22 -6 15 -40 -25 -84 2 -54 32 8 9 15 20 15 26 0 11 105 118
116 118 4 0 4 -18 0 -40z m-6141 -36 c8 -20 15 -45 15 -55 0 -11 5 -19 10 -19
6 0 10 -8 10 -19 0 -10 6 -30 13 -44 11 -20 17 -23 25 -15 9 9 12 8 12 -5 0
-9 -7 -17 -15 -17 -12 0 -15 -14 -15 -69 0 -46 4 -71 13 -74 8 -3 3 -11 -13
-25 -20 -16 -22 -23 -13 -33 21 -22 -3 -50 -41 -47 -24 1 -43 -6 -64 -24 -18
-15 -46 -29 -64 -33 -37 -8 -196 -109 -204 -130 -3 -7 -11 -16 -18 -18 -17 -7
-18 31 -1 63 8 15 11 30 8 34 -6 5 2 27 28 78 5 10 9 24 9 31 0 16 52 141 67
158 6 8 24 41 41 74 17 33 45 75 62 94 16 18 30 38 30 42 0 12 70 89 81 89 5
0 16 -16 24 -36z m32 4 c-3 -7 -5 -2 -5 12 0 14 2 19 5 13 2 -7 2 -19 0 -25z
m1526 -30 l-11 -43 -1 55 c-1 41 2 51 11 42 8 -8 8 -23 1 -54z m5226 -22 c30
-22 62 -41 72 -41 19 -2 44 -28 86 -90 22 -34 27 -51 26 -108 0 -37 -2 -69 -4
-72 -11 -10 -49 9 -55 28 -4 12 -33 48 -65 81 -32 32 -68 78 -79 101 -11 24
-38 68 -60 99 -22 31 -40 61 -40 66 0 12 55 -18 119 -64z m41 13 c0 -5 -7 -6
-15 -3 -8 4 -15 13 -15 21 0 13 3 13 15 3 8 -7 15 -16 15 -21z m-5031 -88
c-34 -50 -64 -89 -67 -87 -4 5 25 53 50 80 10 11 18 24 18 28 0 17 53 93 57
81 2 -6 -24 -52 -58 -102z m4872 67 c11 -21 11 -22 -4 -9 -10 7 -17 17 -17 22
0 15 9 10 21 -13z m370 -14 c5 -15 8 -29 5 -31 -6 -6 -46 35 -46 47 0 21 31 9
41 -16z m-5494 -26 c-3 -8 -6 -5 -6 6 -1 11 2 17 5 13 3 -3 4 -12 1 -19z m839
-7 c-5 -8 16 -76 27 -87 4 -4 4 -16 1 -28 -3 -12 2 -41 11 -66 9 -25 19 -63
22 -85 2 -22 9 -43 15 -46 6 -4 8 -13 5 -20 -3 -9 -10 -2 -18 19 -8 17 -21 34
-29 37 -11 3 -16 18 -17 43 -1 55 -14 103 -28 108 -7 3 -10 15 -7 30 2 14 0
24 -7 24 -11 0 -10 27 2 47 4 6 3 14 -3 18 -5 3 -10 13 -10 21 0 12 4 12 20 4
11 -6 18 -14 16 -19z m-845 -88 c-9 -15 -10 -12 -10 17 0 29 1 32 10 18 7 -12
7 -24 0 -35z m2966 -5 c-3 -7 -5 -2 -5 12 0 14 2 19 5 13 2 -7 2 -19 0 -25z
m1733 -14 c0 -8 5 -14 10 -14 13 0 13 -53 -1 -162 -11 -85 -29 -120 -29 -57 0
26 -3 31 -20 26 -38 -10 -51 46 -27 116 16 44 43 76 34 40 -3 -13 -2 -25 3
-28 11 -7 18 40 8 58 -10 18 0 49 13 41 5 -3 9 -12 9 -20z m-4510 -18 c0 -3
-4 -8 -10 -11 -5 -3 -10 -1 -10 4 0 6 5 11 10 11 6 0 10 -2 10 -4z m780 -26
c7 -16 18 -35 26 -41 8 -6 14 -29 14 -51 0 -21 3 -37 8 -34 11 7 11 -117 0
-131 -6 -7 -8 -22 -5 -32 3 -13 -1 -21 -14 -24 -17 -5 -18 -1 -13 36 3 23 10
63 15 90 8 42 6 52 -14 85 -31 50 -47 89 -47 112 0 29 16 24 30 -10z m4665
-39 c3 -5 1 -12 -4 -15 -5 -3 -11 1 -15 9 -6 16 9 21 19 6z m-815 -54 c0 -7
12 -20 28 -29 38 -23 64 -54 66 -77 0 -11 16 -31 34 -45 31 -22 32 -25 15 -34
-26 -14 -61 3 -81 39 -9 18 -24 39 -32 48 -16 18 -50 86 -50 101 0 6 5 10 10
10 6 0 10 -6 10 -13z m-1863 -19 c-3 -8 -6 -5 -6 6 -1 11 2 17 5 13 3 -3 4
-12 1 -19z m-9 -63 c-1 -50 -18 -52 -18 -1 0 28 6 46 16 46 2 0 3 -20 2 -45z
m-3176 -10 c-2 -14 -9 -28 -15 -32 -6 -3 -7 -1 -3 5 4 7 2 12 -3 12 -6 0 -11
-9 -11 -21 0 -12 -14 -39 -31 -61 -17 -21 -29 -41 -27 -43 4 -5 93 8 141 20
17 5 27 3 27 -4 0 -6 -7 -11 -16 -11 -16 0 -47 -12 -130 -51 -23 -10 -49 -19
-58 -19 -9 0 -20 -8 -23 -17 -7 -18 -22 -33 -35 -33 -4 0 -5 7 -1 16 4 11 -16
4 -63 -21 -38 -21 -73 -41 -79 -45 -5 -4 -19 -10 -30 -13 -30 -10 59 68 103
90 78 39 94 56 133 141 22 46 43 81 48 77 6 -3 25 4 43 15 18 11 34 20 34 20
1 0 -1 -11 -4 -25z m4678 -6 c0 -5 -4 -9 -10 -9 -5 0 -10 7 -10 16 0 8 5 12
10 9 6 -3 10 -10 10 -16z m-5950 -23 c0 -2 -7 -7 -16 -10 -8 -3 -12 -2 -9 4 6
10 25 14 25 6z m2562 -73 c6 -12 8 -30 4 -40 -7 -17 -8 -17 -17 0 -6 9 -8 21
-4 26 3 5 1 11 -3 13 -5 1 -6 21 -3 43 5 36 6 37 9 10 1 -16 8 -40 14 -52z
m4652 25 c4 -17 2 -28 -4 -28 -5 0 -10 9 -10 21 0 11 -4 17 -10 14 -5 -3 -10
-2 -10 4 0 5 6 11 13 14 15 5 13 8 21 -25z m16 -47 c0 -5 3 -16 6 -25 3 -9 2
-16 -4 -16 -5 0 -12 11 -14 25 -3 14 -1 25 3 25 5 0 9 -4 9 -9z m-7203 -35
c-3 -8 2 -16 13 -19 25 -6 15 -47 -11 -47 -14 0 -19 -7 -19 -26 0 -19 -4 -25
-15 -20 -8 3 -15 1 -15 -5 0 -6 -6 -9 -14 -6 -8 3 -13 -1 -12 -11 0 -9 -5 -16
-11 -14 -7 1 -13 -2 -13 -8 0 -5 -7 -10 -16 -10 -8 0 -13 -4 -10 -9 3 -5 -1
-11 -9 -14 -11 -5 -11 0 3 27 10 19 23 31 30 29 8 -4 10 0 6 11 -3 8 4 30 17
47 13 18 25 27 27 21 6 -18 20 -15 45 9 l22 22 -27 -5 c-27 -5 -28 0 -5 30 13
16 20 15 14 -2z m2503 -26 c0 -5 -5 -10 -11 -10 -5 0 -7 5 -4 10 3 6 8 10 11
10 2 0 4 -4 4 -10z m4921 -37 c13 -21 29 -50 35 -64 7 -15 17 -29 22 -33 6 -3
8 -16 4 -28 -3 -15 -2 -19 7 -14 17 11 39 -10 46 -45 4 -16 15 -34 26 -39 23
-13 25 -36 4 -44 -20 -7 -20 -66 0 -66 7 0 18 8 24 18 8 15 11 14 20 -11 6
-16 11 -46 11 -68 0 -33 -4 -41 -27 -52 -16 -6 -33 -19 -40 -27 -10 -13 -12
-13 -17 0 -3 8 -7 31 -9 50 -2 19 -8 35 -13 35 -21 0 -35 18 -29 36 4 13 2 19
-9 19 -9 0 -16 6 -17 13 -2 34 -11 72 -18 77 -5 3 -14 38 -21 78 -9 51 -18 72
-28 72 -11 0 -12 3 -3 13 6 8 8 17 4 20 -3 4 1 7 11 7 11 0 16 6 14 16 -2 8
-7 14 -13 12 -5 -2 -9 -6 -7 -10 1 -5 -2 -8 -7 -8 -5 0 -11 9 -14 20 -3 11 0
18 7 17 6 -1 10 8 9 21 -4 31 1 28 28 -15z m-1214 11 c-3 -3 -12 -4 -19 -1 -8
3 -5 6 6 6 11 1 17 -2 13 -5z m-5078 -36 c-8 -14 -14 -18 -17 -10 -4 13 17 46
25 38 3 -2 -1 -15 -8 -28z m-1582 -20 c-3 -8 -6 -5 -6 6 -1 11 2 17 5 13 3 -3
4 -12 1 -19z m4919 -15 c-11 -11 -19 6 -11 24 8 17 8 17 12 0 3 -10 2 -21 -1
-24z m1694 -78 c0 -37 -49 -93 -62 -72 -8 13 -8 156 0 171 6 11 62 -79 62 -99z
m-5036 81 c15 -5 16 -9 5 -22 -13 -16 -90 -54 -109 -54 -6 0 -22 -7 -35 -16
-14 -9 -31 -14 -39 -11 -7 3 -19 0 -25 -6 -6 -6 -14 -8 -18 -4 -10 10 26 35
68 47 20 5 48 21 63 35 15 14 34 25 42 25 7 0 14 5 14 11 0 5 3 8 8 6 4 -2 15
-7 26 -11z m3357 -50 c0 -6 2 -28 4 -48 2 -21 0 -40 -6 -43 -5 -4 -9 -15 -9
-26 0 -10 -4 -19 -10 -19 -5 0 -10 -11 -10 -24 0 -14 -8 -31 -19 -38 -10 -7
-24 -30 -32 -50 -7 -21 -18 -38 -25 -38 -7 0 -14 -5 -16 -11 -2 -5 -11 -7 -21
-3 -19 7 -19 29 3 134 12 59 27 97 48 118 6 7 12 19 12 26 0 6 5 17 11 23 15
15 69 14 70 -1z m2903 -117 c-6 -11 -24 -2 -24 11 0 5 7 7 15 4 8 -4 12 -10 9
-15z m-2271 -24 c-3 -13 -9 -23 -13 -20 -4 2 -5 16 -3 30 3 13 9 23 13 20 4
-2 5 -16 3 -30z m-3973 21 c0 -2 -8 -10 -17 -17 -16 -13 -17 -12 -4 4 13 16
21 21 21 13z m3476 -32 c-10 -7 -16 -17 -13 -21 3 -5 -3 -9 -13 -9 -19 0 -17
7 9 38 8 9 19 14 24 11 6 -3 2 -12 -7 -19z m1664 -52 c0 -15 2 -15 10 -2 7 11
10 4 10 -27 0 -23 3 -50 7 -60 6 -17 5 -17 -15 1 -24 20 -28 16 -12 -12 8 -15
23 -65 51 -177 5 -22 18 -51 28 -65 10 -14 21 -42 25 -63 l7 -38 -31 16 c-62
32 -126 88 -163 143 -36 52 -38 60 -36 121 3 63 8 88 32 139 10 21 12 22 18 5
5 -12 9 -1 14 35 l8 52 23 -25 c13 -15 24 -34 24 -43z m836 36 c10 -16 13 -88
4 -88 -5 0 -17 27 -27 59 -19 57 -19 59 -2 50 10 -5 21 -14 25 -21z m-2366
-27 c-11 -21 -30 -37 -30 -25 0 8 30 44 37 44 2 0 -1 -9 -7 -19z m1920 -5 c0
-56 -28 -98 -36 -55 -2 7 -6 24 -10 37 -7 23 10 32 19 10 3 -8 6 -6 6 5 1 20
21 24 21 3z m618 -16 c13 -10 25 -31 28 -45 5 -30 -12 -34 -21 -5 -3 11 -15
25 -26 30 -10 6 -19 17 -19 25 0 20 10 18 38 -5z m-4778 -32 c11 -19 17 -41
14 -52 -4 -10 -2 -16 3 -13 10 6 40 -70 35 -87 -2 -5 -5 -51 -8 -103 -3 -51
-12 -105 -19 -120 -8 -15 -12 -38 -9 -50 8 -30 -4 -30 -15 0 -5 13 -5 27 1 35
7 8 7 16 1 25 -6 6 -11 27 -11 45 0 18 -5 39 -11 46 -6 6 -8 22 -4 34 3 14 1
22 -7 22 -7 0 -10 7 -6 15 7 18 -15 79 -30 82 -7 1 -11 -26 -12 -78 0 -83 -6
-104 -22 -79 -16 25 -12 -19 6 -65 14 -37 14 -46 1 -76 l-15 -34 -12 30 c-20
49 -24 154 -7 173 8 9 18 42 21 73 4 30 14 68 21 83 8 16 15 39 15 53 0 24 28
72 43 73 4 0 16 -15 27 -32z m2170 -13 c-11 -14 -7 -19 13 -16 9 1 9 -11 -2
-27 -6 -10 -10 -10 -21 3 -11 13 -11 20 0 40 7 14 15 23 18 20 3 -2 -1 -11 -8
-20z m220 -1 c0 -8 -5 -12 -10 -9 -6 4 -8 11 -5 16 9 14 15 11 15 -7z m122
-61 c7 12 12 2 9 -17 -1 -5 5 -3 15 4 14 13 16 12 13 -5 -2 -10 6 -29 17 -40
20 -20 44 -100 44 -145 0 -11 -7 -20 -15 -20 -8 0 -15 4 -15 10 0 5 -7 7 -15
4 -8 -4 -15 -1 -15 5 0 6 -6 11 -14 11 -22 0 -76 50 -108 99 -32 52 -38 101
-10 101 16 1 16 1 0 14 -11 8 -15 20 -12 33 5 19 10 17 52 -22 32 -30 49 -40
54 -32z m-5134 56 c-10 -5 -18 -20 -18 -31 0 -14 -3 -19 -10 -12 -16 16 0 54
24 54 19 -1 19 -2 4 -11z m5282 -17 c0 -5 20 -32 46 -62 48 -56 91 -130 75
-130 -5 0 -11 7 -15 15 -3 8 -18 21 -33 27 -15 7 -43 28 -61 46 -27 29 -31 37
-20 50 11 13 10 14 -7 9 -14 -5 -24 -1 -33 13 -13 22 -3 27 15 9 9 -9 10 -7 6
10 -4 15 -1 21 11 21 9 0 16 -4 16 -8z m-923 -24 c-3 -8 -6 -5 -6 6 -1 11 2
17 5 13 3 -3 4 -12 1 -19z m3193 2 c0 -11 -4 -20 -10 -20 -5 0 -10 9 -10 20 0
11 5 20 10 20 6 0 10 -9 10 -20z m-7614 -5 c-11 -8 -22 -12 -25 -9 -6 6 19 24
34 24 6 -1 1 -7 -9 -15z m16 -37 c-7 -7 -12 -8 -12 -2 0 14 12 26 19 19 2 -3
-1 -11 -7 -17z m-42 2 c0 -5 -4 -10 -10 -10 -5 0 -10 5 -10 10 0 6 5 10 10 10
6 0 10 -4 10 -10z m6725 0 c12 19 26 0 15 -21 -9 -15 -7 -19 6 -19 11 0 15 -6
11 -20 -3 -11 -1 -17 4 -14 6 3 7 -5 4 -19 -4 -14 -2 -28 4 -31 6 -4 11 0 11
8 0 9 5 16 11 16 7 0 8 -7 4 -17 -13 -30 -12 -67 1 -89 7 -11 13 -40 15 -65 1
-24 7 -50 12 -56 5 -7 7 -19 4 -28 -4 -8 -2 -17 3 -20 21 -13 9 -27 -17 -21
-18 4 -23 3 -14 -2 10 -7 10 -11 1 -17 -18 -11 -25 4 -11 27 9 14 10 23 2 31
-8 8 -11 7 -11 -2 0 -7 -5 -9 -10 -6 -6 4 -8 10 -5 15 8 12 -4 38 -21 44 -8 3
-13 2 -9 -3 9 -15 -5 -39 -22 -37 -8 1 -20 11 -26 21 -14 27 -17 179 -3 207 7
14 9 41 5 68 -7 52 -3 66 16 50 9 -8 15 -8 20 0z m854 -42 c20 -17 39 -40 43
-50 4 -10 12 -18 17 -18 33 0 14 -183 -27 -265 -14 -27 -16 -28 -22 -10 -7 17
-8 16 -12 -10 -3 -29 -5 -27 -36 32 -31 60 -32 67 -32 182 0 109 9 171 26 171
3 0 23 -14 43 -32z m1076 22 c-3 -5 -13 -10 -21 -10 -8 0 -14 5 -14 10 0 6 9
10 21 10 11 0 17 -4 14 -10z m-2015 -45 c0 -8 -4 -15 -10 -15 -5 0 -7 7 -4 15
4 8 8 15 10 15 2 0 4 -7 4 -15z m1430 -30 c0 -8 0 -17 0 -20 0 -16 -14 -6 -16
13 -2 12 1 22 6 22 6 0 10 -7 10 -15z m-1055 -51 c8 -20 15 -44 15 -52 0 -26
-26 16 -35 56 -9 43 1 41 20 -4z m775 2 c0 -32 -14 -55 -26 -43 -8 8 7 77 17
77 5 0 9 -15 9 -34z m-2422 -30 c4 -35 -14 -26 -20 9 -4 16 -1 24 6 22 6 -2
12 -16 14 -31z m2350 -5 c4 -28 -13 -20 -21 9 -3 14 -1 20 6 17 7 -2 14 -14
15 -26z m-6744 -38 c19 -37 56 -152 56 -172 -1 -22 -27 27 -55 103 -12 33 -26
69 -30 79 -12 28 13 20 29 -10z m6820 8 c8 -12 -4 -71 -14 -71 -9 0 -17 39
-12 63 4 18 17 23 26 8z m-84 -58 c-2 -21 -3 -64 -2 -95 2 -52 -1 -60 -24 -57
-10 1 -33 -35 -34 -53 0 -22 -20 -24 -20 -3 0 14 23 81 42 121 5 11 8 24 7 30
-1 5 1 33 6 62 9 62 30 57 25 -5z m-1424 -80 c-11 -11 -17 4 -9 23 7 18 8 18
11 1 2 -10 1 -21 -2 -24z m1461 31 c-3 -3 -12 -4 -19 -1 -8 3 -5 6 6 6 11 1
17 -2 13 -5z m-6465 -40 c-12 -8 -19 -21 -16 -27 4 -7 1 -7 -7 1 -12 11 -10
16 11 32 14 10 27 17 29 14 3 -2 -5 -11 -17 -20z m1385 -26 c-3 -8 -6 -5 -6 6
-1 11 2 17 5 13 3 -3 4 -12 1 -19z m-1343 -10 c-3 -5 -13 -7 -21 -4 -10 4 -13
1 -9 -12 4 -12 -3 -27 -21 -44 -37 -34 -112 -82 -119 -76 -2 3 12 22 31 41 20
20 34 41 30 47 -7 11 19 53 28 44 8 -8 48 6 42 15 -2 5 7 6 20 3 14 -2 22 -9
19 -14z m5671 -18 c3 -5 1 -10 -4 -10 -6 0 -11 5 -11 10 0 6 2 10 4 10 3 0 8
-4 11 -10z m-145 -26 c0 -8 -5 -12 -10 -9 -6 4 -8 11 -5 16 9 14 15 11 15 -7z
m-5664 -32 c-18 -16 -18 -16 -6 6 6 13 14 21 18 18 3 -4 -2 -14 -12 -24z
m1477 -3 c-8 -8 -13 -7 -18 2 -5 8 -4 10 3 5 7 -4 12 -2 12 5 0 7 3 9 7 6 4
-4 2 -12 -4 -18z m5190 -44 c-3 -9 -8 -14 -10 -11 -3 3 -2 9 2 15 9 16 15 13
8 -4z m-8066 -182 c-3 -10 -5 -4 -5 12 0 17 2 24 5 18 2 -7 2 -21 0 -30z
m5048 27 c3 -5 1 -10 -4 -10 -6 0 -11 5 -11 10 0 6 2 10 4 10 3 0 8 -4 11 -10z
m19 -35 c3 -8 1 -15 -3 -15 -5 0 -11 7 -15 15 -3 8 -1 15 3 15 5 0 11 -7 15
-15z"/>
<path d="M5266 6681 c-4 -7 -5 -15 -2 -18 9 -9 19 4 14 18 -4 11 -6 11 -12 0z"/>
<path d="M5220 6580 c0 -5 7 -10 16 -10 8 0 12 5 9 10 -3 6 -10 10 -16 10 -5
0 -9 -4 -9 -10z"/>
<path d="M5265 5604 c-70 -15 -112 -29 -128 -43 -15 -12 -22 -13 -37 -3 -25
15 -30 15 -30 -1 0 -16 35 -51 83 -82 41 -27 95 -33 127 -13 22 14 51 2 140
-62 53 -38 58 -39 135 -39 44 0 89 4 100 8 11 4 35 4 54 -1 78 -22 191 24 191
76 0 12 6 28 13 35 10 11 9 14 -1 18 -7 3 -26 16 -42 29 -16 14 -33 25 -37 25
-4 -1 -8 3 -8 8 0 21 -16 23 -42 5 -68 -46 -118 -61 -73 -22 17 15 19 19 7 15
-10 -4 -23 -7 -28 -7 -5 0 -9 -7 -9 -15 0 -10 -10 -15 -28 -15 -15 0 -33 -5
-40 -12 -8 -8 -15 -8 -27 2 -10 8 -19 10 -23 4 -11 -14 -85 -16 -103 -2 -8 7
-24 25 -33 41 -10 15 -29 30 -42 33 -13 3 -24 10 -24 15 0 9 -57 10 -95 3z
m395 -118 c0 -3 -4 -8 -10 -11 -5 -3 -10 -1 -10 4 0 6 5 11 10 11 6 0 10 -2
10 -4z"/>
<path d="M4088 5233 c7 -3 16 -2 19 1 4 3 -2 6 -13 5 -11 0 -14 -3 -6 -6z"/>
<path d="M5265 5133 c-113 -23 -244 -61 -285 -83 -35 -18 -119 -22 -147 -7
-98 52 -98 51 -160 37 -32 -7 -62 -17 -67 -22 -11 -9 21 -37 42 -38 8 0 25 -9
39 -20 16 -12 40 -19 62 -19 54 1 186 -70 257 -139 19 -18 9 -32 -22 -32 -13
0 -24 -5 -24 -10 0 -6 10 -9 23 -7 12 2 16 2 10 0 -17 -6 -16 -9 3 -38 9 -13
13 -28 10 -33 -7 -12 22 -52 38 -52 8 0 16 -7 20 -15 3 -8 13 -15 23 -15 17
-1 17 -1 0 -15 -18 -13 -18 -14 5 -26 13 -6 27 -18 31 -25 4 -8 19 -14 32 -14
14 0 25 -4 25 -8 0 -12 62 -32 98 -32 17 0 53 -7 78 -16 64 -21 264 -16 311 8
18 9 41 14 50 12 13 -4 22 4 31 24 7 17 22 32 32 35 15 4 20 14 20 36 0 25 4
31 23 31 22 1 22 1 2 16 -17 12 -18 16 -5 24 8 5 17 7 21 4 4 -2 6 12 5 31 -2
19 0 35 5 35 4 0 14 7 23 15 12 12 44 16 145 17 71 1 130 4 129 7 -2 25 4 32
23 26 25 -8 49 19 41 47 -3 12 1 18 12 18 10 0 14 -4 11 -10 -3 -5 -1 -10 5
-10 6 0 8 10 4 24 -3 13 -1 27 5 31 6 3 9 11 6 16 -7 11 -55 12 -55 1 0 -4
-16 -12 -35 -18 -31 -10 -37 -8 -56 12 -12 13 -28 20 -37 17 -11 -5 -13 -3 -7
7 6 10 -1 12 -36 6 -24 -4 -47 -14 -52 -21 -13 -25 -32 -17 -73 28 -21 24 -61
56 -89 72 -123 72 -146 78 -243 65 -38 -5 -61 -2 -80 8 -26 13 -184 24 -227
15z m-228 -183 c2 -22 -12 -27 -23 -9 -5 9 5 22 21 29 1 0 1 -9 2 -20z m134 8
c9 0 21 -9 27 -21 6 -12 11 -16 11 -9 1 7 15 12 37 12 25 0 33 -3 28 -12 -6
-10 -4 -10 8 0 13 11 24 11 60 1 24 -7 57 -14 73 -14 17 -1 68 -8 115 -15 47
-7 108 -15 135 -17 119 -8 144 -16 142 -43 -1 -11 -7 -20 -15 -20 -17 0 -70
-28 -99 -54 -13 -10 -29 -16 -38 -12 -9 3 -26 -1 -38 -9 -29 -20 -37 -19 -37
5 0 21 -15 27 -25 10 -3 -5 -12 -7 -20 -3 -10 3 -15 -2 -15 -16 0 -12 -4 -21
-10 -21 -5 0 -10 7 -10 15 0 22 -43 37 -53 19 -12 -21 -47 1 -48 29 0 22 0 22
-11 1 -12 -26 -52 -21 -72 8 -9 12 -16 16 -21 9 -3 -6 -11 -11 -16 -11 -6 0
-7 4 -4 10 3 6 -1 7 -9 4 -10 -4 -16 -1 -16 10 0 9 -6 13 -14 10 -7 -3 -30 4
-50 15 -20 12 -43 21 -51 21 -8 0 -15 7 -15 15 0 8 -7 15 -15 15 -19 0 -55 31
-55 47 0 20 33 33 70 26 19 -4 42 -6 51 -5z m-121 -154 c0 -8 -5 -12 -10 -9
-6 4 -8 11 -5 16 9 14 15 11 15 -7z m-10 -94 c0 -5 -2 -10 -4 -10 -3 0 -8 5
-11 10 -3 6 -1 10 4 10 6 0 11 -4 11 -10z"/>
<path d="M4965 4840 c-3 -5 1 -10 10 -10 9 0 13 5 10 10 -3 6 -8 10 -10 10 -2
0 -7 -4 -10 -10z"/>
<path d="M6240 4766 c0 -9 5 -16 10 -16 6 0 10 4 10 9 0 6 -4 13 -10 16 -5 3
-10 -1 -10 -9z"/>
<path d="M6080 4659 c0 -5 5 -7 10 -4 6 3 10 8 10 11 0 2 -4 4 -10 4 -5 0 -10
-5 -10 -11z"/>
<path d="M5815 4211 c-6 -11 9 -23 19 -14 9 9 7 23 -3 23 -6 0 -12 -4 -16 -9z"/>
<path d="M7650 1835 c0 -9 5 -15 11 -13 6 2 11 8 11 13 0 5 -5 11 -11 13 -6 2
-11 -4 -11 -13z"/>
<path d="M7661 1774 c-6 -15 -9 -29 -7 -32 3 -2 10 8 16 23 14 36 7 43 -9 9z"/>
<path d="M7562 1421 c2 -7 7 -12 11 -12 12 1 9 15 -3 20 -7 2 -11 -2 -8 -8z"/>
<path d="M7948 1018 c7 -7 12 -20 12 -30 0 -11 14 -26 31 -36 18 -9 47 -30 66
-46 22 -19 37 -26 44 -19 11 11 2 43 -12 43 -5 0 -9 9 -9 21 0 11 -4 17 -10
14 -5 -3 -10 1 -10 9 0 19 -46 22 -53 4 -3 -10 -8 -10 -21 1 -9 8 -14 16 -11
19 7 7 -15 32 -28 32 -7 0 -7 -4 1 -12z"/>
<path d="M1570 1499 c0 -5 5 -7 10 -4 6 3 10 8 10 11 0 2 -4 4 -10 4 -5 0 -10
-5 -10 -11z"/>
<path d="M2776 1363 c-6 -14 -5 -15 5 -6 7 7 10 15 7 18 -3 3 -9 -2 -12 -12z"/>
<path d="M9120 1054 c0 -8 5 -12 10 -9 6 4 8 11 5 16 -9 14 -15 11 -15 -7z"/>
<path d="M9120 880 c0 -5 7 -10 16 -10 8 0 12 5 9 10 -3 6 -10 10 -16 10 -5 0
-9 -4 -9 -10z"/>
<path d="M9200 875 c0 -8 2 -15 4 -15 2 0 6 7 10 15 3 8 1 15 -4 15 -6 0 -10
-7 -10 -15z"/>
<path d="M7870 921 c0 -6 4 -13 10 -16 6 -3 7 1 4 9 -7 18 -14 21 -14 7z"/>
<path d="M4095 850 c3 -5 8 -10 11 -10 2 0 4 5 4 10 0 6 -5 10 -11 10 -5 0 -7
-4 -4 -10z"/>
<path d="M3170 6709 c0 -5 5 -7 10 -4 6 3 10 8 10 11 0 2 -4 4 -10 4 -5 0 -10
-5 -10 -11z"/>
<path d="M20 6501 c0 -6 5 -13 10 -16 6 -3 10 1 10 9 0 9 -4 16 -10 16 -5 0
-10 -4 -10 -9z"/>
<path d="M696 6395 c4 -8 12 -15 20 -15 8 0 14 -4 14 -10 0 -5 5 -10 10 -10
16 0 11 37 -6 44 -28 11 -44 7 -38 -9z"/>
<path d="M7947 5384 c-8 -8 3 -34 14 -34 11 0 12 27 0 34 -4 3 -11 3 -14 0z"/>
<path d="M9025 5070 c3 -5 11 -10 16 -10 6 0 7 5 4 10 -3 6 -11 10 -16 10 -6
0 -7 -4 -4 -10z"/>
<path d="M4655 3570 c-3 -5 3 -10 15 -10 12 0 18 5 15 10 -3 6 -10 10 -15 10
-5 0 -12 -4 -15 -10z"/>
<path d="M4560 3560 c0 -5 7 -10 16 -10 8 0 12 5 9 10 -3 6 -10 10 -16 10 -5
0 -9 -4 -9 -10z"/>
<path d="M4640 3540 c0 -5 5 -10 10 -10 6 0 10 5 10 10 0 6 -4 10 -10 10 -5 0
-10 -4 -10 -10z"/>
<path d="M4560 3510 c0 -5 5 -10 11 -10 5 0 7 5 4 10 -3 6 -8 10 -11 10 -2 0
-4 -4 -4 -10z"/>
<path d="M4575 3480 c-3 -5 -1 -10 4 -10 6 0 11 5 11 10 0 6 -2 10 -4 10 -3 0
-8 -4 -11 -10z"/>
<path d="M5487 3404 c-4 -4 -4 -11 -1 -15 8 -14 31 -10 38 6 5 15 -24 22 -37
9z"/>
<path d="M5105 3370 c-3 -5 -1 -10 4 -10 6 0 11 5 11 10 0 6 -2 10 -4 10 -3 0
-8 -4 -11 -10z"/>
<path d="M4462 3313 c2 -9 8 -18 15 -20 7 -3 9 3 6 16 -6 25 -26 28 -21 4z"/>
<path d="M4248 2993 c7 -3 16 -2 19 1 4 3 -2 6 -13 5 -11 0 -14 -3 -6 -6z"/>
<path d="M4210 2844 c0 -8 5 -12 10 -9 6 3 10 10 10 16 0 5 -4 9 -10 9 -5 0
-10 -7 -10 -16z"/>
<path d="M1040 715 c0 -8 5 -15 10 -15 6 0 10 7 10 15 0 8 -4 15 -10 15 -5 0
-10 -7 -10 -15z"/>
<path d="M9793 633 c-19 -7 -16 -30 5 -35 10 -3 29 -1 42 4 l25 9 -25 14 c-27
16 -29 16 -47 8z"/>
<path d="M9900 610 c-8 -5 7 -10 36 -12 45 -4 113 -25 171 -51 37 -17 39 1 4
37 -31 32 -34 33 -115 33 -46 1 -89 -3 -96 -7z"/>
<path d="M8372 301 c-9 -5 -11 -17 -6 -34 9 -38 24 -33 24 8 0 39 0 38 -18 26z"/>
<path d="M8204 117 c-12 -13 -19 -33 -18 -51 3 -23 0 -27 -16 -23 -11 3 -28
-4 -42 -17 l-23 -21 74 -3 c91 -4 105 1 96 30 -7 22 -45 108 -48 108 -1 0 -11
-10 -23 -23z"/>
</g>
</svg>
